P3 
10 10 255 
90 90 90 90 90 90 255 0 0 90 90 90 90 90 90 90 90 90 90 90 90 90 90 90 90 90 90 90 90 90 
90 90 90 90 90 90 90 90 90 90 90 90 90 90 90 90 90 90 90 90 90 90 90 90 90 90 90 90 90 90 
90 90 90 90 90 90 90 90 90 0 255 0 90 90 90 0 255 0 90 90 90 0 255 0 90 90 90 0 255 0 
90 90 90 90 90 90 90 90 90 0 255 0 90 90 90 0 255 0 90 90 90 0 255 0 90 90 90 0 255 0 
90 90 90 90 90 90 90 90 90 90 90 90 90 90 90 90 90 90 90 90 90 90 90 90 90 90 90 90 90 90 
90 90 90 90 90 90 90 90 90 90 90 90 90 90 90 90 90 90 90 90 90 90 90 90 90 90 90 90 90 90 
90 90 90 90 90 90 90 90 90 90 90 90 90 90 90 90 90 90 0 0 255 0 0 255 0 0 255 0 0 255 
90 90 90 90 90 90 90 90 90 90 90 90 90 90 90 90 90 90 0 0 255 0 0 255 0 0 255 0 0 255 
90 90 90 90 90 90 90 90 90 90 90 90 90 90 90 90 90 90 0 0 255 0 0 255 0 0 255 0 0 255 
90 90 90 90 90 90 90 90 90 90 90 90 90 90 90 90 90 90 0 0 255 0 0 255 0 0 255 0 0 255 
